{"title":"Josh Widdicombe Live 2013 And Another Thing DVDRiP X264 AC3 MURD","uid":9224323,"size":412249088,"categoryP":"video","categoryS":"movies","magnet":"?xt=urn:btih:39db0c4a94525bf34749ef431f30d3d61cdef6c7&amp;dn=Josh+Widdicombe+Live+2013+And+Another+Thing+DVDRiP+X264+AC3+MURD&amp;tr=udp%3A%2F%2Ftracker.openbittorrent.com%3A80&amp;tr=udp%3A%2F%2Fopen.demonii.com%3A1337&amp;tr=udp%3A%2F%2Ftracker.coppersurfer.tk%3A6969&amp;tr=udp%3A%2F%2Fexodus.desync.com%3A6969","seeders":4,"leechers":3,"uploader":".BONE.","files":6,"time":1384984730,"description":"General\nComplete name : Josh Widdicombe Live 2013 And Another Thing DVDRiP X264 AC3MURDER.mkv\nFormat : Matroska\nFormat version : Version 2\nFile size : 392 MiB\nDuration : 1h 9mn\nOverall bit rate : 787 Kbps\nEncoded date : UTC 2013-11-19 16:37:07\nWriting application : mkvmerge v6.2.0 ('Promised Land') built on Apr 28 2013 12:22:01\nWriting library : libebml v1.3.0 + libmatroska v1.4.0\n\nVideo\nID : 1\nFormat : AVC\nFormat/Info : Advanced Video Codec\nFormat profile : &lt;a class=&quot;__cf_email__&quot; href=&quot;/cdn-cgi/l/email-protection&quot; data-cfemail=&quot;eca4858b84aca0dfc2dd&quot;&gt;[email&amp;#160;protected]&lt;/a&gt;&lt;script cf-hash='f9e31' type=&quot;text/javascript&quot;&gt;\n/* &lt;![CDATA[ */!function(){try{var t=&quot;currentScript&quot;in document?document.currentScript:function(){for(var t=document.getElementsByTagName(&quot;script&quot;),e=t.length;e--;)if(t[e].getAttribute(&quot;cf-hash&quot;))return t[e]}();if(t&amp;&amp;t.previousSibling){var e,r,n,i,c=t.previousSibling,a=c.getAttribute(&quot;data-cfemail&quot;);if(a){for(e=&quot;&quot;,r=parseInt(a.substr(0,2),16),n=2;a.length-n;n+=2)i=parseInt(a.substr(n,2),16)^r,e+=String.fromCharCode(i);e=document.createTextNode(e),c.parentNode.replaceChild(e,c)}}}catch(u){}}();/* ]]&gt; */&lt;/script&gt;\nFormat settings, CABAC : Yes\nFormat settings, ReFrames : 5 frames\nCodec ID : V_MPEG4/ISO/AVC\nDuration : 1h 9mn\nBit rate : 580 Kbps\nWidth : 720 pixels\nHeight : 400 pixels\nDisplay aspect ratio : 16:9\nFrame rate mode : Constant\nFrame rate : 25.000 fps\nColor space : YUV\nChroma subsampling : 4:2:0\nBit depth : 8 bits\nScan type : Progressive\nBits/(Pixel*Frame) : 0.080\nStream size : 289 MiB (74%)\nWriting library : x264 core\nDefault : Yes\nForced : No\n\nAudio\nID : 2\nFormat : AC-3\nFormat/Info : Audio Coding 3\nMode extension : CM (complete main)\nFormat settings, Endianness : Big\nCodec ID : A_AC3\nDuration : 1h 9mn\nBit rate mode : Constant\nBit rate : 192 Kbps\nChannel count : 2 channels\nChannel positions : Front: L R\nSampling rate : 48.0 KHz\nBit depth : 16 bits\nCompression mode : Lossy\nStream size : 95.7 MiB (24%)\nLanguage : English\nDefault : Yes\nForced : No","torrent":{"xt":"urn:btih:39db0c4a94525bf34749ef431f30d3d61cdef6c7","amp;dn":"Josh+Widdicombe+Live+2013+And+Another+Thing+DVDRiP+X264+AC3+MURD","amp;tr":["udp%3A%2F%2Ftracker.openbittorrent.com%3A80","udp%3A%2F%2Fopen.demonii.com%3A1337","udp%3A%2F%2Ftracker.coppersurfer.tk%3A6969","udp%3A%2F%2Fexodus.desync.com%3A6969"],"infoHash":"39db0c4a94525bf34749ef431f30d3d61cdef6c7","infoHashBuffer":{"type":"Buffer","data":[57,219,12,74,148,82,91,243,71,73,239,67,31,48,211,214,28,222,246,199]},"announce":[],"urlList":[]}}